<?xml version="1.0" standalone="no"?>
<!DOCTYPE svg PUBLIC "-//W3C//DTD SVG 20010904//EN"
 "http://www.w3.org/TR/2001/REC-SVG-20010904/DTD/svg10.dtd">
<svg version="1.0" xmlns="http://www.w3.org/2000/svg"
 width="270.000000pt" height="270.000000pt" viewBox="0 0 270.000000 270.000000"
 preserveAspectRatio="xMidYMid meet">
<metadata>
Created by potrace 1.14, written by Peter Selinger 2001-2017
</metadata>
<g transform="translate(0.000000,270.000000) scale(0.100000,-0.100000)"
fill="#000000" stroke="none">
<path d="M0 1350 l0 -1350 1350 0 1350 0 0 1350 0 1350 -1350 0 -1350 0 0
-1350z m898 373 c-10 -2 -26 -2 -35 0 -10 3 -2 5 17 5 19 0 27 -2 18 -5z m565
0 c-7 -2 -21 -2 -30 0 -10 3 -4 5 12 5 17 0 24 -2 18 -5z m460 0 c-7 -2 -19
-2 -25 0 -7 3 -2 5 12 5 14 0 19 -2 13 -5z m-1100 -21 c-12 -9 -36 -46 -53
-82 -17 -36 -28 -54 -24 -40 11 43 53 118 71 129 28 16 30 12 6 -7z m134 -4
c11 -13 23 -30 27 -38 4 -8 -1 -4 -12 9 -11 14 -28 31 -38 38 -10 7 -13 13 -8
13 6 0 20 -10 31 -22z m432 3 l-24 -19 -5 -349 -6 -348 -2 341 c-2 332 -1 342
19 368 11 14 25 26 31 26 6 0 0 -9 -13 -19z m287 -251 l164 -244 3 239 2 240
3 -247 c1 -137 0 -248 -3 -248 -3 0 -77 109 -166 243 -89 133 -171 253 -183
267 -17 20 -18 22 -2 10 11 -8 93 -125 182 -260z m204 266 c0 -2 -8 -10 -17
-17 -16 -13 -17 -12 -4 4 13 16 21 21 21 13z m90 -16 c6 -11 9 -20 8 -20 -2 0
-11 9 -21 20 -9 11 -13 20 -7 20 5 0 14 -9 20 -20z m17 -527 c-1 -93 -3 -17
-3 167 0 184 2 260 3 168 2 -93 2 -243 0 -335z m-962 397 c14 -35 23 -65 21
-67 -3 -4 -15 23 -52 122 -4 11 -4 17 0 14 3 -3 17 -34 31 -69z m-130 -58 c-3
-3 -5 0 -5 6 0 16 -20 15 -20 0 -1 -7 -7 -26 -15 -43 -12 -25 -14 -26 -9 -5 4
14 13 41 21 60 15 35 15 35 24 11 5 -13 7 -26 4 -29z m-164 11 c-12 -20 -14
-14 -5 12 4 9 9 14 11 11 3 -2 0 -13 -6 -23z m-20 -50 c-12 -20 -14 -14 -5 12
4 9 9 14 11 11 3 -2 0 -13 -6 -23z m213 -23 c5 -17 4 -20 -2 -10 -5 8 -13 26
-16 40 -5 17 -4 20 2 10 5 -8 13 -26 16 -40z m146 5 c0 -5 -5 -3 -10 5 -5 8
-10 20 -10 25 0 6 5 3 10 -5 5 -8 10 -19 10 -25z m465 -42 c22 -32 43 -64 48
-70 5 -7 7 -13 4 -13 -3 0 -23 26 -44 57 l-38 58 -5 -234 c-5 -230 -5 -233
-29 -252 -30 -25 -63 -24 -92 2 l-24 21 25 -16 c33 -22 66 -20 90 4 19 19 20
33 20 260 0 132 2 240 3 240 2 0 21 -26 42 -57z m-844 10 c-12 -20 -14 -14 -5
12 4 9 9 14 11 11 3 -2 0 -13 -6 -23z m419 -63 c17 -40 28 -75 26 -77 -2 -2
-16 27 -31 64 -37 91 -39 99 -32 92 4 -3 20 -38 37 -79z m-161 20 c0 -10 -3
-8 -9 5 -12 27 -12 43 0 25 5 -8 9 -22 9 -30z m-130 -9 c-6 -18 -13 -30 -15
-28 -2 2 1 18 7 36 6 18 13 30 15 28 2 -2 -1 -18 -7 -36z m-155 -20 c-9 -23
-18 -40 -20 -38 -2 2 4 22 13 45 9 23 18 40 20 38 2 -2 -4 -22 -13 -45z m306
-26 c0 -5 -5 -3 -10 5 -5 8 -10 20 -10 25 0 6 5 3 10 -5 5 -8 10 -19 10 -25z
m-180 -32 c-11 -17 -11 -17 -6 0 3 10 6 24 7 30 0 9 2 9 5 0 3 -7 0 -20 -6
-30z m928 -155 c68 -102 119 -169 132 -173 12 -4 19 -9 17 -12 -19 -18 -118
111 -252 327 -59 96 -2 17 103 -142z m-728 127 c0 -12 -19 -15 -110 -15 -60 0
-110 3 -110 8 0 4 47 6 105 4 70 -2 105 0 105 7 0 6 2 11 5 11 3 0 5 -7 5 -15z
m-369 -22 c-12 -20 -14 -14 -5 12 4 9 9 14 11 11 3 -2 0 -13 -6 -23z m539 -8
c0 -5 -5 -3 -10 5 -5 8 -10 20 -10 25 0 6 5 3 10 -5 5 -8 10 -19 10 -25z
m-569 -66 c-11 -24 -20 -41 -20 -37 -1 12 31 89 35 85 3 -2 -4 -24 -15 -48z
m589 16 c0 -5 -5 -3 -10 5 -5 8 -10 20 -10 25 0 6 5 3 10 -5 5 -8 10 -19 10
-25z m20 -50 c0 -5 -5 -3 -10 5 -5 8 -10 20 -10 25 0 6 5 3 10 -5 5 -8 10 -19
10 -25z m-156 -11 c9 -24 7 -31 -5 -11 -9 15 -28 17 -159 17 -108 0 -150 -3
-150 -12 0 -6 -3 -9 -6 -5 -21 20 19 27 161 27 130 0 154 -2 159 -16z m-483
-31 c-12 -20 -14 -14 -5 12 4 9 9 14 11 11 3 -2 0 -13 -6 -23z m663 -23 c5
-17 4 -20 -2 -10 -5 8 -13 26 -16 40 -5 17 -4 20 2 10 5 -8 13 -26 16 -40z
m-515 -9 c-6 -18 -13 -30 -15 -28 -2 2 1 18 7 36 6 18 13 30 15 28 2 -2 -1
-18 -7 -36z m377 -58 c-4 -4 -36 73 -35 85 0 4 9 -13 20 -37 11 -24 18 -46 15
-48z m-549 5 c-3 -7 -5 -2 -5 12 0 14 2 19 5 13 2 -7 2 -19 0 -25z m677 -37
l-28 -26 22 26 c12 14 23 36 23 50 l2 24 4 -24 c3 -17 -3 -31 -23 -50z m-524
40 c0 -6 -11 -23 -25 -38 l-26 -28 23 37 c25 40 28 43 28 29z m1267 -47 c-16
-14 -40 -24 -55 -23 -24 1 -23 2 8 9 19 5 42 17 50 28 8 11 17 18 20 15 3 -3
-8 -16 -23 -29z m-1391 5 c19 -22 19 -22 -3 -8 -13 8 -23 17 -23 21 0 12 6 9
26 -13z m549 1 c10 -11 16 -20 13 -20 -3 0 -13 9 -23 20 -10 11 -16 20 -13 20
3 0 13 -9 23 -20z m-492 -27 c-7 -2 -19 -2 -25 0 -7 3 -2 5 12 5 14 0 19 -2
13 -5z m550 0 c-7 -2 -19 -2 -25 0 -7 3 -2 5 12 5 14 0 19 -2 13 -5z"/>
</g>
</svg>
